<?xml version="1.0" standalone="no"?>
<!DOCTYPE svg PUBLIC "-//W3C//DTD SVG 20010904//EN"
 "http://www.w3.org/TR/2001/REC-SVG-20010904/DTD/svg10.dtd">
<svg version="1.0" xmlns="http://www.w3.org/2000/svg"
 width="1024.000000pt" height="1024.000000pt" viewBox="0 0 1024.000000 1024.000000"
 preserveAspectRatio="xMidYMid meet">

<g transform="translate(0.000000,1024.000000) scale(0.100000,-0.100000)"
fill="#000000" stroke="none">
<path d="M3765 8844 c-452 -7 -844 -33 -1029 -68 -443 -85 -793 -291 -1020
-600 -177 -240 -250 -416 -311 -748 -60 -330 -60 -341 -60 -2208 0 -1705 3
-1857 36 -2140 24 -210 83 -435 153 -584 88 -189 250 -409 374 -508 307 -245
585 -354 1022 -402 340 -38 512 -41 2325 -41 1618 0 1786 2 1960 18 245 23
353 41 495 84 385 116 684 326 880 620 194 290 268 558 300 1090 13 230 13
3504 0 3708 -25 358 -97 670 -206 888 -182 363 -505 630 -927 766 -205 66
-337 89 -652 112 -136 10 -2826 20 -3340 13z m3790 -1185 c59 -28 115 -84 145
-145 l25 -49 0 -815 c0 -915 5 -847 -76 -935 -81 -88 -227 -117 -331 -66 -59
28 -130 106 -146 159 -8 28 -12 168 -12 473 l-1 434 -577 -581 c-545 -549
-580 -583 -637 -605 -60 -24 -62 -24 -547 -27 -377 -2 -489 -6 -497 -16 -7 -8
-11 -190 -13 -542 l-3 -529 -26 -55 c-32 -66 -86 -123 -154 -158 l-50 -27
-580 -5 c-319 -3 -586 -9 -592 -13 -10 -6 -13 -123 -13 -526 l0 -517 -26 -52
c-108 -217 -410 -214 -511 4 l-24 52 3 703 c3 704 3 704 25 745 32 61 115 131
176 149 43 13 141 15 618 15 455 0 569 3 577 13 8 9 12 182 14 553 3 615 -1
584 93 676 91 90 75 88 705 88 476 0 555 2 589 16 29 11 132 111 397 382 197
202 423 432 501 512 l142 145 -317 5 c-301 5 -319 6 -357 27 -205 110 -193
408 20 509 l50 24 683 0 c673 0 683 0 727 -21z"/>
</g>
</svg>
